<svg width="40" height="40" viewBox="0 0 40 40" fill="none" xmlns="http://www.w3.org/2000/svg">
<rect x="0.5" y="0.5" width="39" height="39" rx="19.5" fill="white"/>
<rect x="0.5" y="0.5" width="39" height="39" rx="19.5" stroke="#E8E8E8"/>
<path d="M24.031 12.8125H24.032C24.5393 12.8127 25.0423 12.9008 25.5183 13.0732L25.7205 13.1523C26.1883 13.3486 26.6177 13.6249 26.99 13.9678L27.1462 14.1191C27.9751 14.963 28.4392 16.0984 28.4392 17.2812C28.4392 18.3902 28.0317 19.4578 27.2976 20.2822L27.1462 20.4434L19.9998 27.6797L12.8542 20.4434C12.0255 19.5996 11.5613 18.464 11.5613 17.2812C11.5613 16.1722 11.9696 15.1047 12.7039 14.2803L12.8542 14.1191C13.2101 13.7574 13.6261 13.4608 14.0828 13.2422L14.281 13.1533C14.8157 12.9293 15.3898 12.8135 15.9695 12.8135C16.4768 12.8135 16.9798 12.902 17.4558 13.0742L17.658 13.1533C18.1257 13.3493 18.5551 13.6251 18.9275 13.9678L19.0837 14.1191L19.0847 14.1201L19.7781 14.8203L20.0007 15.0439L20.2224 14.8203L20.9158 14.1201L20.9177 14.1191C21.273 13.7569 21.6878 13.4591 22.1443 13.2402L22.3425 13.1514C22.8104 12.9551 23.3086 12.8422 23.8142 12.8174L24.031 12.8125ZM24.031 13.4375C23.5322 13.4369 23.0382 13.5369 22.5789 13.7314C22.1767 13.9018 21.8082 14.1417 21.49 14.4395L21.3582 14.5684L20.0007 15.9521L18.6365 14.5566L18.6355 14.5557L18.5027 14.4268C18.2294 14.1748 17.9199 13.9654 17.5847 13.8047L17.4148 13.7285C16.9571 13.5365 16.4658 13.4375 15.9695 13.4375C15.5349 13.4375 15.1037 13.5125 14.696 13.6602L14.5232 13.7285C14.1226 13.8966 13.755 14.133 13.4363 14.4268L13.3025 14.5557C12.5885 15.2806 12.1882 16.2579 12.1882 17.2754C12.1883 18.2292 12.5403 19.1472 13.1726 19.8555L13.3025 19.9941H13.3035L19.7781 26.5508L20.0007 26.7764L20.2224 26.5508L26.698 19.9941C27.412 19.2693 27.8122 18.2928 27.8123 17.2754C27.8123 16.3213 27.4604 15.4028 26.8279 14.6943L26.698 14.5557C26.3504 14.2014 25.9359 13.9195 25.4783 13.7275C25.0203 13.5354 24.5277 13.4371 24.031 13.4375Z" fill="#BDBDBD" stroke="#252B42" stroke-width="0.625"/>
</svg>
