<svg width="131" height="23" viewBox="0 0 131 23" fill="none" xmlns="http://www.w3.org/2000/svg">
<g clip-path="url(#clip0_3010_29243)">
<path d="M20.1308 8.4193C20.0731 8.24949 19.967 8.10028 19.8255 7.99009C19.684 7.8799 19.5133 7.81356 19.3346 7.79925L14.1054 7.38374L11.8426 2.37473C11.7706 2.2134 11.6533 2.07637 11.5051 1.98019C11.3569 1.884 11.184 1.83277 11.0073 1.83267C10.8306 1.83258 10.6577 1.88362 10.5094 1.97964C10.361 2.07566 10.2437 2.21256 10.1714 2.37381L7.9086 7.38374L2.67945 7.79925C2.50376 7.81317 2.3358 7.87741 2.19566 7.98428C2.05552 8.09116 1.94914 8.23615 1.88925 8.4019C1.82935 8.56765 1.81848 8.74715 1.85793 8.91892C1.89737 9.09069 1.98547 9.24746 2.11168 9.37047L5.97599 13.1376L4.60931 19.0555C4.56782 19.2347 4.58112 19.4222 4.64749 19.5936C4.71386 19.7651 4.83024 19.9127 4.98153 20.0172C5.13282 20.1217 5.31202 20.1784 5.4959 20.1798C5.67977 20.1812 5.85982 20.1273 6.01268 20.0251L11.007 16.6955L16.0014 20.0251C16.1576 20.1288 16.3419 20.1822 16.5294 20.1781C16.7168 20.174 16.8986 20.1125 17.0501 20.0021C17.2017 19.8916 17.3157 19.7373 17.377 19.5601C17.4383 19.3828 17.4438 19.1911 17.3928 19.0106L15.7152 13.1403L19.8758 9.39616C20.1482 9.15034 20.2482 8.76693 20.1308 8.4193Z" fill="#F3CD03"/>
<path d="M47.1457 8.4193C47.0881 8.24949 46.9819 8.10028 46.8404 7.99009C46.699 7.8799 46.5283 7.81356 46.3495 7.79925L41.1204 7.38374L38.8576 2.37473C38.7855 2.2134 38.6683 2.07637 38.5201 1.98019C38.3719 1.884 38.199 1.83277 38.0223 1.83267C37.8456 1.83258 37.6726 1.88362 37.5243 1.97964C37.376 2.07566 37.2586 2.21256 37.1864 2.37381L34.9236 7.38374L29.6944 7.79925C29.5187 7.81317 29.3508 7.87741 29.2106 7.98428C29.0705 8.09116 28.9641 8.23615 28.9042 8.4019C28.8443 8.56765 28.8334 8.74715 28.8729 8.91892C28.9123 9.09069 29.0004 9.24746 29.1266 9.37047L32.9909 13.1376L31.6243 19.0555C31.5828 19.2347 31.5961 19.4222 31.6624 19.5936C31.7288 19.7651 31.8452 19.9127 31.9965 20.0172C32.1478 20.1217 32.327 20.1784 32.5109 20.1798C32.6947 20.1812 32.8748 20.1273 33.0276 20.0251L38.022 16.6955L43.0163 20.0251C43.1726 20.1288 43.3568 20.1822 43.5443 20.1781C43.7318 20.174 43.9135 20.1125 44.0651 20.0021C44.2166 19.8916 44.3307 19.7373 44.392 19.5601C44.4532 19.3828 44.4587 19.1911 44.4078 19.0106L42.7301 13.1403L46.8907 9.39616C47.1631 9.15034 47.2631 8.76693 47.1457 8.4193Z" fill="#F3CD03"/>
<path d="M74.1567 8.4193C74.099 8.24949 73.9929 8.10028 73.8514 7.99009C73.7099 7.8799 73.5393 7.81356 73.3605 7.79925L68.1314 7.38374L65.8686 2.37473C65.7965 2.2134 65.6793 2.07637 65.5311 1.98019C65.3828 1.884 65.21 1.83277 65.0333 1.83267C64.8566 1.83258 64.6836 1.88362 64.5353 1.97964C64.387 2.07566 64.2696 2.21256 64.1974 2.37381L61.9345 7.38374L56.7054 7.79925C56.5297 7.81317 56.3617 7.87741 56.2216 7.98428C56.0815 8.09116 55.9751 8.23615 55.9152 8.4019C55.8553 8.56765 55.8444 8.74715 55.8839 8.91892C55.9233 9.09069 56.0114 9.24746 56.1376 9.37047L60.0019 13.1376L58.6353 19.0555C58.5938 19.2347 58.6071 19.4222 58.6734 19.5936C58.7398 19.7651 58.8562 19.9127 59.0075 20.0172C59.1588 20.1217 59.338 20.1784 59.5218 20.1798C59.7057 20.1812 59.8858 20.1273 60.0386 20.0251L65.033 16.6955L70.0273 20.0251C70.1835 20.1288 70.3678 20.1822 70.5553 20.1781C70.7428 20.174 70.9245 20.1125 71.0761 20.0021C71.2276 19.8916 71.3417 19.7373 71.4029 19.5601C71.4642 19.3828 71.4697 19.1911 71.4187 19.0106L69.7411 13.1403L73.9017 9.39616C74.1741 9.15034 74.2741 8.76693 74.1567 8.4193Z" fill="#F3CD03"/>
<path d="M101.171 8.4193C101.113 8.24949 101.007 8.10028 100.865 7.99009C100.724 7.8799 100.553 7.81356 100.375 7.79925L95.1454 7.38374L92.8826 2.37473C92.8105 2.2134 92.6933 2.07637 92.5451 1.98019C92.3969 1.884 92.224 1.83277 92.0473 1.83267C91.8706 1.83258 91.6977 1.88362 91.5493 1.97964C91.401 2.07566 91.2836 2.21256 91.2114 2.37381L88.9486 7.38374L83.7194 7.79925C83.5437 7.81317 83.3758 7.87741 83.2356 7.98428C83.0955 8.09116 82.9891 8.23615 82.9292 8.4019C82.8693 8.56765 82.8585 8.74715 82.8979 8.91892C82.9374 9.09069 83.0255 9.24746 83.1517 9.37047L87.016 13.1376L85.6493 19.0555C85.6078 19.2347 85.6211 19.4222 85.6875 19.5936C85.7538 19.7651 85.8702 19.9127 86.0215 20.0172C86.1728 20.1217 86.352 20.1784 86.5359 20.1798C86.7197 20.1812 86.8998 20.1273 87.0527 20.0251L92.047 16.6955L97.0413 20.0251C97.1976 20.1288 97.3818 20.1822 97.5693 20.1781C97.7568 20.174 97.9386 20.1125 98.0901 20.0021C98.2416 19.8916 98.3557 19.7373 98.417 19.5601C98.4782 19.3828 98.4838 19.1911 98.4328 19.0106L96.7552 13.1403L100.916 9.39616C101.188 9.15034 101.288 8.76693 101.171 8.4193Z" fill="#F3CD03"/>
<path d="M114.032 13.1376L112.665 19.0556C112.623 19.2348 112.635 19.4226 112.702 19.5945C112.768 19.7664 112.884 19.9143 113.035 20.019C113.187 20.1237 113.366 20.1803 113.551 20.1814C113.735 20.1825 113.915 20.1281 114.068 20.0252L119.062 16.6956L124.056 20.0252C124.212 20.1289 124.397 20.1823 124.584 20.1782C124.772 20.1741 124.953 20.1126 125.105 20.0022C125.257 19.8917 125.371 19.7374 125.432 19.5602C125.493 19.3829 125.499 19.1912 125.448 19.0107L123.77 13.1404L127.931 9.39625C128.064 9.27626 128.159 9.11985 128.204 8.94635C128.25 8.77286 128.243 8.58989 128.186 8.42007C128.128 8.25026 128.022 8.10104 127.88 7.99088C127.739 7.88072 127.568 7.81445 127.389 7.80026L122.16 7.38383L119.897 2.37482C119.825 2.21353 119.708 2.07657 119.56 1.98046C119.412 1.88436 119.239 1.83322 119.062 1.83322C118.885 1.83322 118.712 1.88436 118.564 1.98046C118.416 2.07657 118.298 2.21353 118.226 2.37482L115.963 7.38383L110.734 7.79934C110.559 7.81326 110.391 7.8775 110.251 7.98438C110.11 8.09125 110.004 8.23624 109.944 8.40199C109.884 8.56774 109.873 8.74724 109.913 8.91901C109.952 9.09078 110.04 9.24755 110.167 9.37056L114.032 13.1376ZM116.649 9.16969C116.812 9.15679 116.97 9.10009 117.104 9.00552C117.238 8.91095 117.344 8.782 117.412 8.63219L119.062 4.98068L120.712 8.63219C120.779 8.782 120.886 8.91095 121.02 9.00552C121.154 9.10009 121.311 9.15679 121.475 9.16969L125.118 9.45862L122.118 12.159C121.858 12.3938 121.754 12.7552 121.849 13.0927L122.999 17.1148L119.572 14.8299C119.421 14.729 119.244 14.6751 119.063 14.6751C118.882 14.6751 118.705 14.729 118.555 14.8299L114.974 17.2175L115.937 13.0478C115.972 12.8944 115.967 12.7345 115.923 12.5835C115.879 12.4325 115.796 12.2955 115.684 12.1856L112.897 9.46871L116.649 9.16969Z" fill="#F3CD03"/>
</g>
<defs>
<clipPath id="clip0_3010_29243">
<rect width="130.068" height="22.0136" fill="white"/>
</clipPath>
</defs>
</svg>
